<svg xmlns="http://www.w3.org/2000/svg" viewBox="-60 -60 120 120"><rect x="-60" y="-60" width="120" height="120" rx="26" fill="#0B0B0F"/><g stroke="#8B5CF6" stroke-width="4.6" stroke-linecap="round"><line x1="20" y1="0" x2="52" y2="0" transform="rotate(0.0)"/><line x1="20" y1="0" x2="36" y2="0" transform="rotate(22.5)"/><line x1="20" y1="0" x2="52" y2="0" transform="rotate(45.0)"/><line x1="20" y1="0" x2="36" y2="0" transform="rotate(67.5)"/><line x1="20" y1="0" x2="52" y2="0" transform="rotate(90.0)"/><line x1="20" y1="0" x2="36" y2="0" transform="rotate(112.5)"/><line x1="20" y1="0" x2="52" y2="0" transform="rotate(135.0)"/><line x1="20" y1="0" x2="36" y2="0" transform="rotate(157.5)"/><line x1="20" y1="0" x2="52" y2="0" transform="rotate(180.0)"/><line x1="20" y1="0" x2="36" y2="0" transform="rotate(202.5)"/><line x1="20" y1="0" x2="52" y2="0" transform="rotate(225.0)"/><line x1="20" y1="0" x2="36" y2="0" transform="rotate(247.5)"/><line x1="20" y1="0" x2="52" y2="0" transform="rotate(270.0)"/><line x1="20" y1="0" x2="36" y2="0" transform="rotate(292.5)"/><line x1="20" y1="0" x2="52" y2="0" transform="rotate(315.0)"/><line x1="20" y1="0" x2="36" y2="0" transform="rotate(337.5)"/></g><circle r="7.4" fill="#B8F500"/></svg>